<svg id="visual" viewBox="0 0 900 600" width="900" height="600" xmlns="http://www.w3.org/2000/svg" xmlns:xlink="http://www.w3.org/1999/xlink" version="1.1"><rect x="0" y="0" width="900" height="600" fill="#09112c"></rect><defs><linearGradient id="grad1_0" x1="33.3%" y1="0%" x2="100%" y2="100%"><stop offset="20%" stop-color="#09112c" stop-opacity="1"></stop><stop offset="80%" stop-color="#09112c" stop-opacity="1"></stop></linearGradient></defs><defs><linearGradient id="grad2_0" x1="0%" y1="0%" x2="66.7%" y2="100%"><stop offset="20%" stop-color="#09112c" stop-opacity="1"></stop><stop offset="80%" stop-color="#09112c" stop-opacity="1"></stop></linearGradient></defs><g transform="translate(900, 0)"><path d="M0 378.6C-53.5 378.7 -107 378.9 -144.9 349.8C-182.8 320.6 -205.1 262.2 -217.1 217.1C-229.1 171.9 -230.7 140 -255.9 106C-281.1 72 -329.8 36 -378.6 0L0 0Z" fill="#533fd5"></path></g><g transform="translate(0, 600)"><path d="M0 -378.6C28.2 -329 56.5 -279.3 112.1 -270.7C167.8 -262.1 250.8 -294.4 267.7 -267.7C284.6 -241 235.5 -155.1 243 -100.6C250.4 -46.2 314.5 -23.1 378.6 0L0 0Z" fill="#533fd5"></path></g></svg>