<svg id="visual" viewBox="0 0 1366 768" width="1366" height="768" xmlns="http://www.w3.org/2000/svg" xmlns:xlink="http://www.w3.org/1999/xlink" version="1.1"><g stroke-width="10" stroke-linejoin="bevel"><path d="M658.5 357.3L676.5 317.3L539.4 330.3Z" fill="#000322" stroke="#000000"></path><path d="M676.5 317.3L574.5 244L539.4 330.3Z" fill="#000d28" stroke="#000000"></path><path d="M539.4 330.3L555.5 366.7L658.5 357.3Z" fill="#000624" stroke="#000000"></path><path d="M742.5 149.3L561.4 207.7L574.5 244Z" fill="#000322" stroke="#000000"></path><path d="M574.5 244L494.4 313L539.4 330.3Z" fill="#000322" stroke="#000000"></path><path d="M477.3 211.7L494.4 313L574.5 244Z" fill="#001832" stroke="#000000"></path><path d="M539.4 330.3L472.3 396.3L555.5 366.7Z" fill="#000d28" stroke="#000000"></path><path d="M658.5 357.3L724.5 294L676.5 317.3Z" fill="#000d28" stroke="#000000"></path><path d="M676.5 317.3L724.5 294L574.5 244Z" fill="#000322" stroke="#000000"></path><path d="M494.4 313L472.3 396.3L539.4 330.3Z" fill="#001a34" stroke="#000000"></path><path d="M555.5 366.7L620.4 480.7L658.5 357.3Z" fill="#000d28" stroke="#000000"></path><path d="M380.3 250L452.3 357.7L494.4 313Z" fill="#000624" stroke="#000000"></path><path d="M494.4 313L452.3 357.7L472.3 396.3Z" fill="#000624" stroke="#000000"></path><path d="M561.4 207.7L477.3 211.7L574.5 244Z" fill="#00142e" stroke="#000000"></path><path d="M584.4 520.3L620.4 480.7L555.5 366.7Z" fill="#001630" stroke="#000000"></path><path d="M864.6 459.7L814.6 287L724.5 294Z" fill="#000000" stroke="#000000"></path><path d="M683.5 89.7L563.5 140.7L561.4 207.7Z" fill="#00142e" stroke="#000000"></path><path d="M561.4 207.7L502.3 155.3L477.3 211.7Z" fill="#00142e" stroke="#000000"></path><path d="M563.5 140.7L502.3 155.3L561.4 207.7Z" fill="#000d28" stroke="#000000"></path><path d="M735.5 511.3L724.5 294L658.5 357.3Z" fill="#000624" stroke="#000000"></path><path d="M724.5 294L742.5 149.3L574.5 244Z" fill="#000322" stroke="#000000"></path><path d="M805.6 197.7L742.5 149.3L724.5 294Z" fill="#000a26" stroke="#000000"></path><path d="M472.3 396.3L584.4 520.3L555.5 366.7Z" fill="#000d28" stroke="#000000"></path><path d="M620.4 480.7L684.5 511.7L658.5 357.3Z" fill="#001832" stroke="#000000"></path><path d="M584.4 520.3L684.5 511.7L620.4 480.7Z" fill="#001630" stroke="#000000"></path><path d="M452.3 357.7L440.3 459L472.3 396.3Z" fill="#001832" stroke="#000000"></path><path d="M472.3 396.3L464.4 495L584.4 520.3Z" fill="#001630" stroke="#000000"></path><path d="M359.3 159.7L433.3 168L376.3 42.3Z" fill="#00142e" stroke="#000000"></path><path d="M502.3 155.3L433.3 168L477.3 211.7Z" fill="#00142e" stroke="#000000"></path><path d="M477.3 211.7L380.3 250L494.4 313Z" fill="#001832" stroke="#000000"></path><path d="M452.3 357.7L287.3 327.7L440.3 459Z" fill="#001832" stroke="#000000"></path><path d="M814.6 287L805.6 197.7L724.5 294Z" fill="#00142e" stroke="#000000"></path><path d="M270.1 482.7L439.3 469L440.3 459Z" fill="#000d28" stroke="#000000"></path><path d="M440.3 459L464.4 495L472.3 396.3Z" fill="#00102a" stroke="#000000"></path><path d="M783.6 59.3L683.5 89.7L742.5 149.3Z" fill="#00102a" stroke="#000000"></path><path d="M742.5 149.3L683.5 89.7L561.4 207.7Z" fill="#00142e" stroke="#000000"></path><path d="M563.5 140.7L558.4 23.3L502.3 155.3Z" fill="#00142e" stroke="#000000"></path><path d="M439.3 469L464.4 495L440.3 459Z" fill="#00102a" stroke="#000000"></path><path d="M433.3 168L380.3 250L477.3 211.7Z" fill="#001630" stroke="#000000"></path><path d="M675.5 583L735.5 511.3L684.5 511.7Z" fill="#000000" stroke="#000000"></path><path d="M684.5 511.7L735.5 511.3L658.5 357.3Z" fill="#001a34" stroke="#000000"></path><path d="M359.3 159.7L354.2 244.3L380.3 250Z" fill="#000322" stroke="#000000"></path><path d="M380.3 250L317.3 291.3L452.3 357.7Z" fill="#001a34" stroke="#000000"></path><path d="M674.5 0L652.5 50.3L700.5 0Z" fill="#00122c" stroke="#000000"></path><path d="M683.5 89.7L652.5 50.3L563.5 140.7Z" fill="#001832" stroke="#000000"></path><path d="M464.4 495L544.5 566L584.4 520.3Z" fill="#000a26" stroke="#000000"></path><path d="M584.4 520.3L675.5 583L684.5 511.7Z" fill="#001a34" stroke="#000000"></path><path d="M544.5 566L675.5 583L584.4 520.3Z" fill="#000000" stroke="#000000"></path><path d="M376.3 42.3L433.3 168L502.3 155.3Z" fill="#001630" stroke="#000000"></path><path d="M433.3 168L359.3 159.7L380.3 250Z" fill="#000322" stroke="#000000"></path><path d="M263.1 244.3L317.3 291.3L354.2 244.3Z" fill="#000322" stroke="#000000"></path><path d="M354.2 244.3L317.3 291.3L380.3 250Z" fill="#000d28" stroke="#000000"></path><path d="M652.5 50.3L558.4 23.3L563.5 140.7Z" fill="#00142e" stroke="#000000"></path><path d="M899.7 520.7L864.6 459.7L829.6 608.7Z" fill="#00122c" stroke="#000000"></path><path d="M735.5 511.3L864.6 459.7L724.5 294Z" fill="#000322" stroke="#000000"></path><path d="M814.6 287L910.6 250.3L805.6 197.7Z" fill="#001630" stroke="#000000"></path><path d="M464.4 495L526.4 600.7L544.5 566Z" fill="#000000" stroke="#000000"></path><path d="M544.5 566L544.3 633.3L675.5 583Z" fill="#001a34" stroke="#000000"></path><path d="M393.3 641.3L526.4 600.7L464.4 495Z" fill="#001630" stroke="#000000"></path><path d="M393.3 641.3L464.4 495L439.3 469Z" fill="#000624" stroke="#000000"></path><path d="M878.7 109.3L742.5 149.3L805.6 197.7Z" fill="#000d28" stroke="#000000"></path><path d="M878.7 109.3L783.6 59.3L742.5 149.3Z" fill="#000000" stroke="#000000"></path><path d="M652.5 50.3L674.5 0L558.4 23.3Z" fill="#00142e" stroke="#000000"></path><path d="M986.7 337.3L910.6 250.3L814.6 287Z" fill="#00102a" stroke="#000000"></path><path d="M700.5 0L652.5 50.3L683.5 89.7Z" fill="#000624" stroke="#000000"></path><path d="M263.1 244.3L287.3 327.7L317.3 291.3Z" fill="#000a26" stroke="#000000"></path><path d="M317.3 291.3L287.3 327.7L452.3 357.7Z" fill="#001a34" stroke="#000000"></path><path d="M739.6 0L700.5 0L683.5 89.7Z" fill="#00102a" stroke="#000000"></path><path d="M561.5 689.7L544.3 633.3L500.3 720.7Z" fill="#000d28" stroke="#000000"></path><path d="M526.4 600.7L544.3 633.3L544.5 566Z" fill="#000000" stroke="#000000"></path><path d="M674.5 0L493.4 0L558.4 23.3Z" fill="#000a26" stroke="#000000"></path><path d="M558.4 23.3L493.4 0L502.3 155.3Z" fill="#001630" stroke="#000000"></path><path d="M783.6 59.3L739.6 0L683.5 89.7Z" fill="#000000" stroke="#000000"></path><path d="M272.1 144.3L293.2 185L359.3 159.7Z" fill="#000d28" stroke="#000000"></path><path d="M359.3 159.7L293.2 185L354.2 244.3Z" fill="#00102a" stroke="#000000"></path><path d="M935.7 229L878.7 109.3L805.6 197.7Z" fill="#00102a" stroke="#000000"></path><path d="M783.6 59.3L877.7 0L739.6 0Z" fill="#001630" stroke="#000000"></path><path d="M952.7 238L935.7 229L910.6 250.3Z" fill="#001630" stroke="#000000"></path><path d="M910.6 250.3L935.7 229L805.6 197.7Z" fill="#001630" stroke="#000000"></path><path d="M293.2 185L263.1 244.3L354.2 244.3Z" fill="#001a34" stroke="#000000"></path><path d="M493.4 0L376.3 42.3L502.3 155.3Z" fill="#000322" stroke="#000000"></path><path d="M986.7 337.3L952.7 238L910.6 250.3Z" fill="#00102a" stroke="#000000"></path><path d="M935.7 229L995.7 142.7L878.7 109.3Z" fill="#000322" stroke="#000000"></path><path d="M561.5 689.7L734.5 646.3L675.5 583Z" fill="#001a34" stroke="#000000"></path><path d="M675.5 583L734.5 646.3L735.5 511.3Z" fill="#000000" stroke="#000000"></path><path d="M829.6 608.7L864.6 459.7L735.5 511.3Z" fill="#000d28" stroke="#000000"></path><path d="M864.6 459.7L968.7 421L814.6 287Z" fill="#000624" stroke="#000000"></path><path d="M154.1 414.7L262.2 446.7L287.3 327.7Z" fill="#000322" stroke="#000000"></path><path d="M287.3 327.7L262.2 446.7L440.3 459Z" fill="#001a34" stroke="#000000"></path><path d="M493.4 0L402.3 0L376.3 42.3Z" fill="#001832" stroke="#000000"></path><path d="M734.5 646.3L829.6 608.7L735.5 511.3Z" fill="#00122c" stroke="#000000"></path><path d="M307.2 61.3L359.3 159.7L376.3 42.3Z" fill="#000624" stroke="#000000"></path><path d="M281.2 77.7L272.1 144.3L359.3 159.7Z" fill="#001832" stroke="#000000"></path><path d="M293.2 185L272.1 144.3L263.1 244.3Z" fill="#001a34" stroke="#000000"></path><path d="M154.1 414.7L261.1 455L262.2 446.7Z" fill="#000d28" stroke="#000000"></path><path d="M262.2 446.7L270.1 482.7L440.3 459Z" fill="#000d28" stroke="#000000"></path><path d="M261.1 455L270.1 482.7L262.2 446.7Z" fill="#000322" stroke="#000000"></path><path d="M970.7 435.7L968.7 421L864.6 459.7Z" fill="#000d28" stroke="#000000"></path><path d="M968.7 421L986.7 337.3L814.6 287Z" fill="#000a26" stroke="#000000"></path><path d="M500.3 720.7L544.3 633.3L526.4 600.7Z" fill="#000000" stroke="#000000"></path><path d="M544.3 633.3L561.5 689.7L675.5 583Z" fill="#00102a" stroke="#000000"></path><path d="M899.7 520.7L970.7 435.7L864.6 459.7Z" fill="#001832" stroke="#000000"></path><path d="M968.7 421L1028.7 376.3L986.7 337.3Z" fill="#000a26" stroke="#000000"></path><path d="M1003.8 422L970.7 435.7L1000.7 528.3Z" fill="#001832" stroke="#000000"></path><path d="M829.6 608.7L889.6 575L899.7 520.7Z" fill="#000000" stroke="#000000"></path><path d="M312.3 0L307.2 61.3L376.3 42.3Z" fill="#000624" stroke="#000000"></path><path d="M270.1 482.7L393.3 641.3L439.3 469Z" fill="#00102a" stroke="#000000"></path><path d="M312.3 0L281.2 77.7L307.2 61.3Z" fill="#000000" stroke="#000000"></path><path d="M307.2 61.3L281.2 77.7L359.3 159.7Z" fill="#000d28" stroke="#000000"></path><path d="M281.2 77.7L251.1 114.7L272.1 144.3Z" fill="#000322" stroke="#000000"></path><path d="M272.1 144.3L157.1 190.7L263.1 244.3Z" fill="#000a26" stroke="#000000"></path><path d="M130.1 339L154.1 414.7L287.3 327.7Z" fill="#000000" stroke="#000000"></path><path d="M995.7 142.7L935.7 229L952.7 238Z" fill="#001630" stroke="#000000"></path><path d="M976.7 0L877.7 0L878.7 109.3Z" fill="#00102a" stroke="#000000"></path><path d="M878.7 109.3L877.7 0L783.6 59.3Z" fill="#00122c" stroke="#000000"></path><path d="M1000.7 528.3L970.7 435.7L899.7 520.7Z" fill="#000000" stroke="#000000"></path><path d="M970.7 435.7L1003.8 422L968.7 421Z" fill="#001630" stroke="#000000"></path><path d="M1045.8 283L952.7 238L986.7 337.3Z" fill="#001832" stroke="#000000"></path><path d="M1045.8 283L995.7 142.7L952.7 238Z" fill="#000000" stroke="#000000"></path><path d="M393.3 641.3L500.3 720.7L526.4 600.7Z" fill="#000322" stroke="#000000"></path><path d="M768.5 768L794.5 711.7L734.5 646.3Z" fill="#001630" stroke="#000000"></path><path d="M1003.8 422L1028.7 376.3L968.7 421Z" fill="#00142e" stroke="#000000"></path><path d="M402.3 0L312.3 0L376.3 42.3Z" fill="#00142e" stroke="#000000"></path><path d="M281.2 77.7L197.2 0L251.1 114.7Z" fill="#001832" stroke="#000000"></path><path d="M1028.7 376.3L1045.8 283L986.7 337.3Z" fill="#000624" stroke="#000000"></path><path d="M829.6 608.7L858.6 679.3L889.6 575Z" fill="#000000" stroke="#000000"></path><path d="M997.7 549L1000.7 528.3L899.7 520.7Z" fill="#000322" stroke="#000000"></path><path d="M734.5 646.3L794.5 711.7L829.6 608.7Z" fill="#00142e" stroke="#000000"></path><path d="M634.5 768L734.5 646.3L561.5 689.7Z" fill="#00102a" stroke="#000000"></path><path d="M270.1 482.7L337.3 662.7L393.3 641.3Z" fill="#00102a" stroke="#000000"></path><path d="M393.3 641.3L438.3 768L500.3 720.7Z" fill="#000322" stroke="#000000"></path><path d="M794.5 711.7L858.6 679.3L829.6 608.7Z" fill="#000d28" stroke="#000000"></path><path d="M997.7 549L899.7 520.7L964.7 599.7Z" fill="#001a34" stroke="#000000"></path><path d="M1003.8 422L1063.8 378.7L1028.7 376.3Z" fill="#00142e" stroke="#000000"></path><path d="M337.3 662.7L346.2 681.3L393.3 641.3Z" fill="#001832" stroke="#000000"></path><path d="M964.7 599.7L899.7 520.7L889.6 575Z" fill="#00122c" stroke="#000000"></path><path d="M1000.7 528.3L1063.8 378.7L1003.8 422Z" fill="#000d28" stroke="#000000"></path><path d="M1028.7 376.3L1078.8 356.3L1045.8 283Z" fill="#001832" stroke="#000000"></path><path d="M522.4 768L561.5 689.7L500.3 720.7Z" fill="#000000" stroke="#000000"></path><path d="M522.4 768L634.5 768L561.5 689.7Z" fill="#001630" stroke="#000000"></path><path d="M858.6 679.3L964.7 599.7L889.6 575Z" fill="#001630" stroke="#000000"></path><path d="M1128.9 379.7L1063.8 378.7L1162.9 553Z" fill="#001630" stroke="#000000"></path><path d="M130.1 339L287.3 327.7L263.1 244.3Z" fill="#001a34" stroke="#000000"></path><path d="M261.1 455L178.2 575L270.1 482.7Z" fill="#00102a" stroke="#000000"></path><path d="M270.1 482.7L178.2 575L337.3 662.7Z" fill="#001a34" stroke="#000000"></path><path d="M227.2 768L342.3 768L346.2 681.3Z" fill="#000000" stroke="#000000"></path><path d="M141.1 60.3L157.1 190.7L251.1 114.7Z" fill="#000624" stroke="#000000"></path><path d="M251.1 114.7L157.1 190.7L272.1 144.3Z" fill="#00122c" stroke="#000000"></path><path d="M438.3 768L522.4 768L500.3 720.7Z" fill="#00142e" stroke="#000000"></path><path d="M1128.9 379.7L1078.8 356.3L1063.8 378.7Z" fill="#001a34" stroke="#000000"></path><path d="M1063.8 378.7L1078.8 356.3L1028.7 376.3Z" fill="#000624" stroke="#000000"></path><path d="M1061.8 0L976.7 0L995.7 142.7Z" fill="#000624" stroke="#000000"></path><path d="M118.1 310L130.1 339L263.1 244.3Z" fill="#00122c" stroke="#000000"></path><path d="M1067.7 139.7L995.7 142.7L1045.8 283Z" fill="#001832" stroke="#000000"></path><path d="M995.7 142.7L976.7 0L878.7 109.3Z" fill="#000a26" stroke="#000000"></path><path d="M794.5 711.7L920.7 768L858.6 679.3Z" fill="#000d28" stroke="#000000"></path><path d="M858.6 679.3L937.7 768L964.7 599.7Z" fill="#001832" stroke="#000000"></path><path d="M634.5 768L768.5 768L734.5 646.3Z" fill="#000624" stroke="#000000"></path><path d="M768.5 768L768.6 768L794.5 711.7Z" fill="#001630" stroke="#000000"></path><path d="M346.2 681.3L438.3 768L393.3 641.3Z" fill="#001832" stroke="#000000"></path><path d="M157.1 190.7L118.1 310L263.1 244.3Z" fill="#000a26" stroke="#000000"></path><path d="M87.1 525.3L106.1 527.3L154.1 414.7Z" fill="#000d28" stroke="#000000"></path><path d="M1128.9 106.3L1067.7 139.7L1161.9 205.7Z" fill="#001630" stroke="#000000"></path><path d="M154.1 414.7L178.2 575L261.1 455Z" fill="#00102a" stroke="#000000"></path><path d="M346.2 681.3L342.3 768L438.3 768Z" fill="#000a26" stroke="#000000"></path><path d="M106.1 527.3L178.2 575L154.1 414.7Z" fill="#000d28" stroke="#000000"></path><path d="M312.3 0L197.2 0L281.2 77.7Z" fill="#000d28" stroke="#000000"></path><path d="M0 145.3L0 310L118.1 310Z" fill="#000d28" stroke="#000000"></path><path d="M197.2 0L141.1 60.3L251.1 114.7Z" fill="#00102a" stroke="#000000"></path><path d="M1162.9 553L1063.8 378.7L1000.7 528.3Z" fill="#00102a" stroke="#000000"></path><path d="M1078.8 356.3L1161.9 205.7L1045.8 283Z" fill="#000d28" stroke="#000000"></path><path d="M1075.7 617.3L1000.7 528.3L997.7 549Z" fill="#001832" stroke="#000000"></path><path d="M182.1 0L141.1 60.3L197.2 0Z" fill="#001a34" stroke="#000000"></path><path d="M227.2 768L346.2 681.3L337.3 662.7Z" fill="#001a34" stroke="#000000"></path><path d="M1128.9 106.3L1100.7 104.3L1067.7 139.7Z" fill="#001a34" stroke="#000000"></path><path d="M1067.7 139.7L1061.8 0L995.7 142.7Z" fill="#001832" stroke="#000000"></path><path d="M58.1 398.3L154.1 414.7L130.1 339Z" fill="#00142e" stroke="#000000"></path><path d="M178.2 575L176.2 672.7L337.3 662.7Z" fill="#00142e" stroke="#000000"></path><path d="M182.1 0L155.1 0L141.1 60.3Z" fill="#001a34" stroke="#000000"></path><path d="M1100.7 104.3L1061.8 0L1067.7 139.7Z" fill="#000624" stroke="#000000"></path><path d="M768.6 768L920.7 768L794.5 711.7Z" fill="#000d28" stroke="#000000"></path><path d="M964.7 599.7L1075.7 617.3L997.7 549Z" fill="#00142e" stroke="#000000"></path><path d="M0 310L58.1 398.3L118.1 310Z" fill="#00122c" stroke="#000000"></path><path d="M118.1 310L58.1 398.3L130.1 339Z" fill="#000624" stroke="#000000"></path><path d="M118.1 310L157.1 190.7L0 145.3Z" fill="#000a26" stroke="#000000"></path><path d="M1161.9 205.7L1067.7 139.7L1045.8 283Z" fill="#000d28" stroke="#000000"></path><path d="M1100.7 104.3L1116.8 -12.7L1061.8 0Z" fill="#000000" stroke="#000000"></path><path d="M1094.9 686.7L1075.7 617.3L964.7 599.7Z" fill="#000000" stroke="#000000"></path><path d="M58.1 398.3L87.1 525.3L154.1 414.7Z" fill="#000d28" stroke="#000000"></path><path d="M84.1 558L176.2 672.7L178.2 575Z" fill="#001630" stroke="#000000"></path><path d="M84.1 558L178.2 575L106.1 527.3Z" fill="#001832" stroke="#000000"></path><path d="M1211.9 337.3L1161.9 205.7L1078.8 356.3Z" fill="#000a26" stroke="#000000"></path><path d="M920.7 768L937.7 768L858.6 679.3Z" fill="#000000" stroke="#000000"></path><path d="M158.1 768L193.1 708.7L153.1 768Z" fill="#001832" stroke="#000000"></path><path d="M176.2 672.7L193.1 708.7L337.3 662.7Z" fill="#00122c" stroke="#000000"></path><path d="M87.1 525.3L84.1 558L106.1 527.3Z" fill="#00142e" stroke="#000000"></path><path d="M0 488L84.1 558L87.1 525.3Z" fill="#000624" stroke="#000000"></path><path d="M158.1 768L227.2 768L193.1 708.7Z" fill="#00102a" stroke="#000000"></path><path d="M193.1 708.7L227.2 768L337.3 662.7Z" fill="#000a26" stroke="#000000"></path><path d="M1120.8 684.7L1126.8 604.3L1075.7 617.3Z" fill="#000d28" stroke="#000000"></path><path d="M1075.7 617.3L1126.8 604.3L1000.7 528.3Z" fill="#000624" stroke="#000000"></path><path d="M1128.9 379.7L1211.9 337.3L1078.8 356.3Z" fill="#001832" stroke="#000000"></path><path d="M1161.9 205.7L1169.8 103.7L1128.9 106.3Z" fill="#000322" stroke="#000000"></path><path d="M1128.9 106.3L1116.8 -12.7L1100.7 104.3Z" fill="#000322" stroke="#000000"></path><path d="M1176.9 -4.7L1116.8 -12.7L1128.9 106.3Z" fill="#001a34" stroke="#000000"></path><path d="M1061.8 0L1116.8 -12.7L976.7 0Z" fill="#000322" stroke="#000000"></path><path d="M976.7 0L1116.8 -12.7L877.7 0Z" fill="#000000" stroke="#000000"></path><path d="M877.7 0L1116.8 -12.7L739.6 0Z" fill="#00122c" stroke="#000000"></path><path d="M739.6 0L1116.8 -12.7L700.5 0Z" fill="#00122c" stroke="#000000"></path><path d="M700.5 0L1116.8 -12.7L674.5 0Z" fill="#000322" stroke="#000000"></path><path d="M674.5 0L1116.8 -12.7L493.4 0Z" fill="#000d28" stroke="#000000"></path><path d="M493.4 0L1116.8 -12.7L402.3 0Z" fill="#001a34" stroke="#000000"></path><path d="M402.3 0L1116.8 -12.7L312.3 0Z" fill="#000322" stroke="#000000"></path><path d="M312.3 0L1116.8 -12.7L197.2 0Z" fill="#000d28" stroke="#000000"></path><path d="M197.2 0L1116.8 -12.7L182.1 0Z" fill="#001832" stroke="#000000"></path><path d="M182.1 0L1116.8 -12.7L155.1 0Z" fill="#000322" stroke="#000000"></path><path d="M1265.9 527.3L1211.9 337.3L1128.9 379.7Z" fill="#000a26" stroke="#000000"></path><path d="M1161.9 205.7L1221.9 196L1169.8 103.7Z" fill="#00122c" stroke="#000000"></path><path d="M0 145.3L157.1 190.7L0 125.7Z" fill="#000d28" stroke="#000000"></path><path d="M58.1 398.3L0 488L87.1 525.3Z" fill="#000322" stroke="#000000"></path><path d="M1126.8 604.3L1162.9 553L1000.7 528.3Z" fill="#000624" stroke="#000000"></path><path d="M0 310L0 420.7L58.1 398.3Z" fill="#000a26" stroke="#000000"></path><path d="M1055.7 768.7L1094.9 686.7L964.7 599.7Z" fill="#00102a" stroke="#000000"></path><path d="M1126.8 604.3L1175.9 646.3L1162.9 553Z" fill="#00142e" stroke="#000000"></path><path d="M0 420.7L0 438.3L58.1 398.3Z" fill="#001832" stroke="#000000"></path><path d="M153.1 768L193.1 708.7L94.1 732.7Z" fill="#001630" stroke="#000000"></path><path d="M1211.9 337.3L1221.9 196L1161.9 205.7Z" fill="#000d28" stroke="#000000"></path><path d="M1169.8 103.7L1176.9 -4.7L1128.9 106.3Z" fill="#000322" stroke="#000000"></path><path d="M0 125.7L157.1 190.7L141.1 60.3Z" fill="#000d28" stroke="#000000"></path><path d="M0 438.3L0 488L58.1 398.3Z" fill="#001630" stroke="#000000"></path><path d="M0 0L0 125.7L141.1 60.3Z" fill="#000624" stroke="#000000"></path><path d="M1089.9 768L1120.8 684.7L1094.9 686.7Z" fill="#000624" stroke="#000000"></path><path d="M1094.9 686.7L1120.8 684.7L1075.7 617.3Z" fill="#001832" stroke="#000000"></path><path d="M193.1 708.7L176.2 672.7L94.1 732.7Z" fill="#001832" stroke="#000000"></path><path d="M920.7 768L1055.7 768.7L937.7 768Z" fill="#000322" stroke="#000000"></path><path d="M937.7 768L1055.7 768.7L964.7 599.7Z" fill="#00142e" stroke="#000000"></path><path d="M768.6 768L1055.7 768.7L920.7 768Z" fill="#000a26" stroke="#000000"></path><path d="M768.5 768L1055.7 768.7L768.6 768Z" fill="#001832" stroke="#000000"></path><path d="M0 772.7L1055.7 768.7L768.5 768Z" fill="#000322" stroke="#000000"></path><path d="M0 772.7L768.5 768L634.5 768Z" fill="#00122c" stroke="#000000"></path><path d="M0 772.7L634.5 768L522.4 768Z" fill="#001a34" stroke="#000000"></path><path d="M0 772.7L522.4 768L438.3 768Z" fill="#000a26" stroke="#000000"></path><path d="M0 772.7L438.3 768L342.3 768Z" fill="#001a34" stroke="#000000"></path><path d="M0 772.7L342.3 768L227.2 768Z" fill="#001832" stroke="#000000"></path><path d="M94.1 732.7L176.2 672.7L84.1 558Z" fill="#00142e" stroke="#000000"></path><path d="M158.1 768L0 772.7L227.2 768Z" fill="#00102a" stroke="#000000"></path><path d="M1278.9 329.3L1253.9 321L1211.9 337.3Z" fill="#000624" stroke="#000000"></path><path d="M1211.9 337.3L1253.9 321L1221.9 196Z" fill="#000000" stroke="#000000"></path><path d="M1278.9 329.3L1211.9 337.3L1265.9 527.3Z" fill="#00142e" stroke="#000000"></path><path d="M1201.9 0L1169.8 103.7L1222.9 0Z" fill="#000000" stroke="#000000"></path><path d="M1201.9 0L1176.9 -4.7L1169.8 103.7Z" fill="#00102a" stroke="#000000"></path><path d="M1179.8 768L1175.9 646.3L1120.8 684.7Z" fill="#000000" stroke="#000000"></path><path d="M1120.8 684.7L1175.9 646.3L1126.8 604.3Z" fill="#000a26" stroke="#000000"></path><path d="M0 662.3L94.1 732.7L84.1 558Z" fill="#000000" stroke="#000000"></path><path d="M1055.7 768.7L1089.9 768L1094.9 686.7Z" fill="#000d28" stroke="#000000"></path><path d="M1270.9 130.7L1169.8 103.7L1221.9 196Z" fill="#00142e" stroke="#000000"></path><path d="M1265.9 527.3L1128.9 379.7L1162.9 553Z" fill="#00122c" stroke="#000000"></path><path d="M1253.9 321L1366 227L1221.9 196Z" fill="#001a34" stroke="#000000"></path><path d="M1116.8 -12.7L0 0L155.1 0Z" fill="#001a34" stroke="#000000"></path><path d="M155.1 0L0 0L141.1 60.3Z" fill="#001a34" stroke="#000000"></path><path d="M1366 176.7L1270.9 130.7L1221.9 196Z" fill="#000000" stroke="#000000"></path><path d="M1270.9 130.7L1222.9 0L1169.8 103.7Z" fill="#000322" stroke="#000000"></path><path d="M1201.9 0L1222.9 0L1176.9 -4.7Z" fill="#000000" stroke="#000000"></path><path d="M1176.9 -4.7L1366 0L1116.8 -12.7Z" fill="#00122c" stroke="#000000"></path><path d="M1366 580.3L1265.9 527.3L1352.9 625.7Z" fill="#000000" stroke="#000000"></path><path d="M1175.9 646.3L1265.9 527.3L1162.9 553Z" fill="#001a34" stroke="#000000"></path><path d="M0 488L0 662.3L84.1 558Z" fill="#000000" stroke="#000000"></path><path d="M1089.9 768L1179.8 768L1120.8 684.7Z" fill="#000a26" stroke="#000000"></path><path d="M1055.7 768.7L1179.8 768L1089.9 768Z" fill="#00122c" stroke="#000000"></path><path d="M1366 348.7L1366 303.3L1278.9 329.3Z" fill="#00102a" stroke="#000000"></path><path d="M1278.9 329.3L1366 227L1253.9 321Z" fill="#001630" stroke="#000000"></path><path d="M1270.9 130.7L1366 65.3L1222.9 0Z" fill="#000322" stroke="#000000"></path><path d="M1366 348.7L1278.9 329.3L1358.9 442Z" fill="#000d28" stroke="#000000"></path><path d="M0 662.3L0 768L94.1 732.7Z" fill="#000d28" stroke="#000000"></path><path d="M94.1 732.7L0 772.7L153.1 768Z" fill="#000d28" stroke="#000000"></path><path d="M153.1 768L0 772.7L158.1 768Z" fill="#000d28" stroke="#000000"></path><path d="M1358.9 442L1278.9 329.3L1265.9 527.3Z" fill="#000a26" stroke="#000000"></path><path d="M0 768L0 772.7L94.1 732.7Z" fill="#001a34" stroke="#000000"></path><path d="M1354.9 470.7L1358.9 442L1265.9 527.3Z" fill="#001a34" stroke="#000000"></path><path d="M1366 303.3L1366 227L1278.9 329.3Z" fill="#00142e" stroke="#000000"></path><path d="M1366 580.3L1354.9 470.7L1265.9 527.3Z" fill="#000322" stroke="#000000"></path><path d="M1366 227L1366 176.7L1221.9 196Z" fill="#000000" stroke="#000000"></path><path d="M1366 580.3L1366 452L1354.9 470.7Z" fill="#001a34" stroke="#000000"></path><path d="M1354.9 470.7L1366 452L1358.9 442Z" fill="#00142e" stroke="#000000"></path><path d="M1358.9 442L1366 452L1366 348.7Z" fill="#000624" stroke="#000000"></path><path d="M1366 176.7L1366 65.3L1270.9 130.7Z" fill="#000d28" stroke="#000000"></path><path d="M1055.7 768.7L1261.9 768L1179.8 768Z" fill="#001630" stroke="#000000"></path><path d="M1179.8 768L1261.9 768L1175.9 646.3Z" fill="#000a26" stroke="#000000"></path><path d="M1366 768L1261.9 768L1055.7 768.7Z" fill="#000322" stroke="#000000"></path><path d="M1352.9 625.7L1265.9 527.3L1175.9 646.3Z" fill="#000322" stroke="#000000"></path><path d="M1261.9 768L1352.9 625.7L1175.9 646.3Z" fill="#000a26" stroke="#000000"></path><path d="M1366 65.3L1366 0L1222.9 0Z" fill="#000a26" stroke="#000000"></path><path d="M1222.9 0L1366 0L1176.9 -4.7Z" fill="#001630" stroke="#000000"></path><path d="M1261.9 768L1366 695.7L1352.9 625.7Z" fill="#000624" stroke="#000000"></path><path d="M1352.9 625.7L1366 695.7L1366 580.3Z" fill="#00142e" stroke="#000000"></path><path d="M0 772.7L1366 768L1055.7 768.7Z" fill="#000d28" stroke="#000000"></path><path d="M1261.9 768L1366 768L1366 695.7Z" fill="#001832" stroke="#000000"></path></g></svg>