<svg id="visual" viewBox="0 0 900 600" width="900" height="600" xmlns="http://www.w3.org/2000/svg" xmlns:xlink="http://www.w3.org/1999/xlink" version="1.1"><path d="M280 0L268 16.7C256 33.3 232 66.7 211.2 100C190.3 133.3 172.7 166.7 171.8 200C171 233.3 187 266.7 205 300C223 333.3 243 366.7 229.3 400C215.7 433.3 168.3 466.7 156.7 500C145 533.3 169 566.7 181 583.3L193 600L0 600L0 583.3C0 566.7 0 533.3 0 500C0 466.7 0 433.3 0 400C0 366.7 0 333.3 0 300C0 266.7 0 233.3 0 200C0 166.7 0 133.3 0 100C0 66.7 0 33.3 0 16.7L0 0Z" fill="#16325d" stroke-linecap="round" stroke-linejoin="miter"></path></svg>